# xmcd
#
# Track frame offsets: 
#        150
#        8665
#        23220
#        34257
#        47153
#        57900
#        72669
#        86180
#        99058
#        109719
#        124333
#        133675
#
# Disc length: 1974 seconds
#
# Revision: 2
# Processed by: cddbd v1.5.2PL0 Copyright (c) Steve Scherf et al.
# Submitted via: ExactAudioCopy v0.95b4
#
DISCID=a207b40c
DTITLE=Jim Reeves - Twelve Songs Of Christmas
DYEAR=1988
DGENRE=Country
TTITLE0=Jingle Bells
TTITLE1=Blue Christmas
TTITLE2=Senor Santa Claus
TTITLE3=An Old Christmas Card
TTITLE4=The Merry Christmas Polka
TTITLE5=White Christmas
TTITLE6=Silver Bells
TTITLE7=C-H-R-I-S-T-M-A-S
TTITLE8=O Little Town Of Bethlehem
TTITLE9=Mary's Little Boy Child
TTITLE10=Oh Come, All Ye Faithful (Adeste Fideles)
TTITLE11=Silent Night
EXTD=
EXTT0=
EXTT1=
EXTT2=
EXTT3=
EXTT4=
EXTT5=
EXTT6=
EXTT7=
EXTT8=
EXTT9=
EXTT10=
EXTT11=
PLAYORDER=
